G04 #@! TF.FileFunction,Soldermask,Bot*
%FSLAX46Y46*%
G04 Gerber Fmt 4.6, Leading zero omitted, Abs format (unit mm)*
G04 Created by KiCad (PCBNEW 4.0.2-stable) date 26.4.2016 12:05:50*
%MOMM*%
G01*
G04 APERTURE LIST*
%ADD10C,0.100000*%
%ADD11R,2.400000X2.400000*%
%ADD12C,2.400000*%
%ADD13R,2.127200X2.432000*%
%ADD14O,2.127200X2.432000*%
%ADD15C,1.299160*%
G04 APERTURE END LIST*
D10*
D11*
X136144000Y-64262000D03*
D12*
X131064000Y-64262000D03*
X128524000Y-64262000D03*
X125984000Y-64262000D03*
X53975000Y-76835000D03*
X53975000Y-80645000D03*
X53975000Y-85725000D03*
X53975000Y-89535000D03*
X53975000Y-94615000D03*
X53975000Y-98425000D03*
X53975000Y-103505000D03*
X53975000Y-107315000D03*
X133604000Y-64262000D03*
X53975000Y-121285000D03*
X53975000Y-125095000D03*
X53975000Y-130175000D03*
X53975000Y-133985000D03*
X53975000Y-139065000D03*
X53975000Y-142875000D03*
D13*
X141605000Y-64135000D03*
D14*
X144145000Y-64135000D03*
X146685000Y-64135000D03*
D15*
X164503100Y-82971640D03*
X164503100Y-78572360D03*
D12*
X53975000Y-67945000D03*
X53975000Y-71755000D03*
X53975000Y-112395000D03*
X53975000Y-116205000D03*
D11*
X59690000Y-68580000D03*
D12*
X59690000Y-71120000D03*
D11*
X59690000Y-77470000D03*
D12*
X59690000Y-80010000D03*
D11*
X59690000Y-86360000D03*
D12*
X59690000Y-88900000D03*
D11*
X59690000Y-95250000D03*
D12*
X59690000Y-97790000D03*
D11*
X59690000Y-104140000D03*
D12*
X59690000Y-106680000D03*
D11*
X59690000Y-113030000D03*
D12*
X59690000Y-115570000D03*
D11*
X59690000Y-121920000D03*
D12*
X59690000Y-124460000D03*
D11*
X59690000Y-130810000D03*
D12*
X59690000Y-133350000D03*
D11*
X59690000Y-139700000D03*
D12*
X59690000Y-142240000D03*
M02*
