M48
;DRILL file {KiCad 4.0.2-stable} date 26.4.2016 11:57:07
;FORMAT={-:-/ absolute / inch / decimal}
FMAT,2
INCH,TZ
T1C0.024
T2C0.039
T3C0.039
T4C0.040
T5C0.047
%
G90
G05
M72
T1
X2.4856Y-5.2926
X2.4856Y-5.5952
X2.4912Y-4.7977
X2.6302Y-4.5666
X2.7559Y-4.252
X2.7559Y-4.8819
X2.8346Y-5.1575
X2.8937Y-2.5
X2.9921Y-5.8268
X3.4252Y-4.2126
X3.5039Y-5.6299
X3.5236Y-2.5
X3.5827Y-5.8268
X3.7966Y-3.4656
X3.8976Y-4.7244
X3.92Y-3.268
X4.0551Y-5.8268
X4.0945Y-5.3937
X4.1535Y-2.5
X4.1579Y-2.8579
X4.1624Y-4.3741
X4.3307Y-5.
X4.4235Y-4.6174
X4.4488Y-2.7953
X4.5079Y-3.5827
X4.5102Y-4.5039
X4.5276Y-5.6299
X4.6457Y-2.5984
X4.6502Y-3.1171
X4.6519Y-4.4553
X4.7789Y-3.2868
X4.7808Y-3.8441
X4.7857Y-3.7484
X4.8425Y-2.7953
X4.8543Y-3.4672
X4.9213Y-5.
X4.9213Y-5.315
X4.9417Y-3.2023
X4.9606Y-4.252
X4.9668Y-4.5601
X5.1227Y-4.5039
X5.18Y-3.4407
X5.1969Y-3.5827
X5.2559Y-5.6693
X5.3313Y-3.1108
X5.4921Y-3.7008
X5.5906Y-5.315
X5.6265Y-3.0283
X5.6853Y-3.3016
X5.7087Y-2.7953
X5.7105Y-3.4135
X5.7389Y-3.2756
X5.748Y-3.8189
X5.7874Y-3.1496
X5.8044Y-3.2648
X5.8133Y-3.5143
X5.849Y-3.4672
X5.8541Y-3.5677
X5.9252Y-5.6693
X6.1306Y-3.26
X6.2205Y-3.5039
X6.2205Y-4.5276
X6.2205Y-5.3543
T2
X2.6244Y-3.0262
X2.6244Y-4.7575
X2.6302Y-3.2079
X2.6486Y-4.0824
X2.6806Y-3.5762
X3.2639Y-3.5959
X3.4582Y-3.105
T3
X2.35Y-2.7
X2.35Y-2.8
X2.35Y-3.05
X2.35Y-3.15
X2.35Y-3.4
X2.35Y-3.5
X2.35Y-3.75
X2.35Y-3.85
X2.35Y-4.1
X2.35Y-4.2
X2.35Y-4.45
X2.35Y-4.55
X2.35Y-4.8
X2.35Y-4.9
X2.35Y-5.15
X2.35Y-5.25
X2.35Y-5.5
X2.35Y-5.6
T4
X4.96Y-2.53
X5.06Y-2.53
X5.16Y-2.53
X5.26Y-2.53
X5.36Y-2.53
X5.575Y-2.525
X5.675Y-2.525
X5.775Y-2.525
T5
X2.125Y-2.675
X2.125Y-2.825
X2.125Y-3.025
X2.125Y-3.175
X2.125Y-3.375
X2.125Y-3.525
X2.125Y-3.725
X2.125Y-3.875
X2.125Y-4.075
X2.125Y-4.225
X2.125Y-4.425
X2.125Y-4.575
X2.125Y-4.775
X2.125Y-4.925
X2.125Y-5.125
X2.125Y-5.275
X2.125Y-5.475
X2.125Y-5.625
T0
M30
